<?xml version="1.0" encoding="UTF-8"?>
<svg id="_图层_2" data-name="图层 2" xmlns="http://www.w3.org/2000/svg" xmlns:xlink="http://www.w3.org/1999/xlink" viewBox="0 0 512 512">
  <defs>
    <style>
      .cls-1 {
        font-family: NaishoMoji-Regular-83pv-RKSJ-H, 'Naisho Moji';
        letter-spacing: .7em;
      }

      .cls-1, .cls-2 {
        font-size: 84.79px;
        stroke: #000;
        stroke-miterlimit: 10;
        stroke-width: 7px;
      }

      .cls-3, .cls-4, .cls-5 {
        fill: none;
      }

      .cls-6 {
        filter: url(#luminosity-noclip);
      }

      .cls-4 {
        mask: url(#mask);
      }

      .cls-2 {
        font-family: mplus-2p-black, 'M+ 2p';
        font-weight: 800;
      }

      .cls-5 {
        clip-path: url(#clippath);
      }
    </style>
    <clipPath id="clippath">
      <rect class="cls-3" width="512" height="512"/>
    </clipPath>
    <filter id="luminosity-noclip" x="51.74" y="77.3" width="476.09" height="356.81" color-interpolation-filters="sRGB" filterUnits="userSpaceOnUse">
      <feFlood flood-color="#fff" result="bg"/>
      <feBlend in="SourceGraphic" in2="bg"/>
    </filter>
    <mask id="mask" x="51.74" y="77.3" width="476.09" height="356.81" maskUnits="userSpaceOnUse">
      <g class="cls-6">
        <g>
          <text class="cls-2" transform="translate(55.24 284.16)"><tspan x="0" y="0">結束</tspan></text>
          <text class="cls-1" transform="translate(236.04 284.16)"><tspan x="0" y="0">テタ</tspan></text>
        </g>
      </g>
    </mask>
  </defs>
  <g id="_图层_1-2" data-name="图层 1">
    <g class="cls-5">
      <g>
        <g class="cls-4">
          <path d="m373.14,87.69c-45.18-33.66-134.82,14.95-193.97,138.44-33.08,69.07-43.55,139.13-4.3,164.02,8.31,5.27,17.37,7.83,26.9,8.1h.31s10.85.28,10.85.28c-2.92,3.32-8.8,9.8-21.41,23.29l26.41,12.29c13.05-14.33,23.61-25.26,32.86-34.64l7.61.19,15.63-15.95v-7.81c14.39-14.94,27.96-30.47,47.99-58.2.01,0,.01-.01.01-.01,9.26-11.82,17.82-24.27,25.35-36.86,42.96-71.81,69.77-160.36,25.76-193.14Zm-45.76,173.02c-40.77,72.76-108.35,139.71-143.12,105.82-25.15-24.52-2.79-106.83,21.4-150.9,48.8-88.93,120.08-131.38,147.91-110.56,31.14,23.3,7.07,96.31-26.19,155.64Z"/>
        </g>
        <g>
          <g>
            <path d="m56.93,236.51l4.58-12.8,2.54,3.05c1.36-3.11,2.85-7.04,4.49-11.79l10.34,2.88c-1.98,5.2-4.61,11.05-7.89,17.55l1.1,1.36c3.05-5.26,5.45-9.61,7.21-13.06l8.73,3.22v-4.49h16.62v-7.04h15.35v7.04h16.62v12.46h-16.62v5.77h14.58v11.7h-43.92l1.19,4.92h41.89v34.93h-15.35v-3.31h-12.89v3.31h-14.58v-30.78l-6.19,1.27-.59-2.37-3.82.25v32.05h-12.8v-31.03l-9.41.68-.42-12.04,6.36-.34,1.7-2.71-8.82-10.68Zm0,51.13c.85-7.86,1.53-15.46,2.04-22.81l7.46.42c-.4,7.8-1.07,15.69-2.04,23.66l-7.46-1.27Zm24.42-38.75l-1.27-5.26-3.48,5.51,4.75-.25Zm-.34-6.87l6.61-1.7c1.19,4.3,2.04,7.52,2.54,9.67v-9.33h14.5v-5.77h-16.62v-5.17c-2.54,4.75-4.89,8.85-7.04,12.29Zm8.73,43.58l-7.55.42c-.17-7.35-.42-14.41-.76-21.2l7.04-.85c.68,9.16,1.1,16.37,1.27,21.62Zm15.77-7.89h12.89v-8.31h-12.89v8.31Z"/>
            <path d="m166.65,266.87h-20.01v-30.36h25.35v-3.73h-30.36v-12.04h30.36v-5.34h15.77v5.34h30.35v12.04h-30.35v3.73h25.35v30.36h-20.01c7.57,4.47,16.73,8.34,27.47,11.62l-5.77,12.89c-10.63-4.07-19.64-8.7-27.05-13.91v15.18h-15.77v-15.18c-7.41,5.2-16.42,9.84-27.05,13.91l-5.77-12.89c10.74-3.28,19.9-7.15,27.47-11.62Zm-5.43-11.19h10.77v-7.89h-10.77v7.89Zm37.31,0v-7.89h-10.77v7.89h10.77Z"/>
          </g>
          <g>
            <path d="m317.1,214.72v10.43h-77.33v-10.43h77.33Zm-77.33,24h77.33v10.43h-19.76l-17.3,42.91h-34.26l17.3-42.91h-23.32v-10.43Z"/>
            <path d="m447.76,248.13h7.89v10.51h-12.12l-13.48,33.41h-32.82l13.48-33.41h-7.72v-10.51h11.96l9.33-22.98h-14.5l-13.57,33.49h-12.29l17.72-43.92h59.61l-13.48,33.41Z"/>
          </g>
        </g>
      </g>
    </g>
  </g>
</svg>